<?xml version="1.0" standalone="no"?>
<!DOCTYPE svg PUBLIC "-//W3C//DTD SVG 20010904//EN"
 "http://www.w3.org/TR/2001/REC-SVG-20010904/DTD/svg10.dtd">
<svg version="1.0" xmlns="http://www.w3.org/2000/svg"
 width="525.000000pt" height="525.000000pt" viewBox="0 0 525.000000 525.000000"
 preserveAspectRatio="xMidYMid meet">
<metadata>
Created by potrace 1.11, written by Peter Selinger 2001-2013
</metadata>
<g transform="translate(0.000000,525.000000) scale(0.100000,-0.100000)"
fill="#000000" stroke="none">
<path d="M2365 5004 c-135 -16 -281 -45 -399 -79 -621 -180 -1150 -610 -1452
-1180 -262 -495 -340 -1044 -229 -1614 71 -364 273 -769 533 -1070 208 -240
446 -424 737 -572 276 -139 552 -219 855 -247 142 -13 415 -7 540 12 14 2 50
7 80 11 30 4 58 9 61 11 3 2 21 6 40 9 125 21 355 100 515 175 480 227 877
614 1117 1088 89 178 177 422 204 571 2 14 11 60 19 101 8 41 17 111 22 155
11 120 7 480 -6 560 -7 39 -15 86 -18 105 -44 270 -175 612 -329 854 -223 353
-536 644 -906 844 -196 106 -494 211 -679 238 -19 3 -42 7 -50 9 -8 3 -37 7
-65 11 -27 3 -61 8 -75 10 -64 11 -414 10 -515 -2z m540 -123 c499 -68 935
-274 1289 -610 44 -42 180 -191 216 -237 159 -203 288 -441 369 -679 39 -117
83 -294 95 -385 4 -25 10 -70 14 -100 9 -72 9 -395 -1 -490 -4 -41 -19 -133
-33 -205 -169 -848 -827 -1539 -1667 -1751 -126 -32 -235 -51 -345 -61 -140
-12 -397 -7 -525 11 -112 16 -381 78 -416 96 -9 4 -50 20 -91 35 -75 28 -232
103 -319 152 -369 213 -697 558 -886 934 -85 167 -165 383 -191 514 -2 11 -7
31 -9 45 -58 272 -65 583 -20 852 14 82 16 93 41 188 167 636 597 1170 1180
1464 151 76 358 153 484 181 122 26 237 44 375 58 64 7 364 -2 440 -12z"/>
<path d="M2617 4683 c-1 -1 -41 -3 -88 -4 -260 -6 -561 -84 -818 -212 -277
-138 -499 -321 -714 -587 -49 -60 -153 -226 -201 -320 -99 -193 -157 -367
-198 -595 -17 -94 -22 -161 -22 -315 -1 -223 5 -289 38 -451 175 -841 873
-1491 1732 -1614 204 -29 477 -20 684 21 619 125 1145 525 1433 1091 89 176
172 424 193 580 3 27 8 57 10 68 18 87 24 344 11 475 -98 991 -893 1777 -1877
1855 -83 7 -181 11 -183 8z m167 -127 c55 -4 102 -9 105 -10 3 -2 26 -7 51
-10 25 -3 56 -8 70 -11 14 -3 34 -7 45 -9 240 -46 559 -201 785 -381 350 -279
613 -714 689 -1140 6 -33 13 -70 15 -83 10 -50 20 -193 20 -292 -1 -145 -11
-248 -39 -384 -132 -637 -575 -1167 -1180 -1411 -85 -34 -271 -90 -335 -100
-19 -3 -60 -10 -90 -15 -417 -71 -908 24 -1279 248 -162 98 -244 163 -392 311
-253 253 -436 584 -510 923 -19 88 -21 101 -38 218 -10 68 -7 392 4 470 28
198 87 394 174 575 228 477 636 841 1127 1004 129 43 178 57 238 66 21 3 48 7
60 10 56 13 90 16 196 22 63 3 116 6 117 7 2 2 17 1 35 0 18 -1 78 -5 132 -8z"/>
<path d="M2583 4391 c-167 -42 -200 -272 -53 -363 185 -114 391 98 273 280
-45 68 -138 104 -220 83z m109 -141 c25 -26 29 -36 24 -62 -12 -58 -54 -85
-106 -67 -69 24 -72 122 -5 149 36 15 56 11 87 -20z"/>
<path d="M1501 3959 c-123 -23 -197 -153 -152 -270 15 -42 63 -91 106 -110 89
-41 193 -11 250 70 26 37 30 51 30 110 0 57 -4 74 -27 109 -47 70 -126 105
-207 91z m94 -144 c47 -46 21 -120 -46 -131 -75 -12 -121 76 -69 131 32 34 82
34 115 0z"/>
<path d="M3674 3944 c-40 -17 -96 -75 -111 -117 -38 -104 19 -225 122 -260
176 -59 333 130 240 289 -37 63 -92 97 -163 99 -31 2 -71 -3 -88 -11z m111
-114 c27 -10 55 -62 48 -89 -9 -32 -32 -53 -69 -61 -33 -8 -40 -6 -65 20 -44
43 -37 98 16 128 25 14 37 15 70 2z"/>
<path d="M2420 3830 c-252 -46 -457 -150 -641 -327 -169 -163 -281 -354 -339
-582 -26 -104 -34 -180 -33 -321 3 -311 122 -594 346 -826 238 -247 556 -378
902 -369 416 9 776 213 1006 568 66 103 128 249 160 383 28 115 35 351 14 469
-49 269 -164 486 -358 678 -276 270 -678 395 -1057 327z m455 -130 c148 -37
235 -75 362 -158 74 -49 193 -155 248 -223 143 -173 240 -435 244 -657 2 -72
1 -73 -21 -67 -32 10 -73 32 -90 47 -75 72 -153 103 -255 101 -75 -2 -111 -16
-203 -83 -130 -94 -188 -94 -315 0 -89 66 -142 85 -232 83 -74 -1 -145 -31
-218 -92 -100 -83 -187 -82 -296 4 -85 67 -140 88 -225 88 -84 -1 -137 -21
-224 -88 -58 -45 -115 -71 -124 -57 -4 9 1 131 8 187 9 62 45 193 69 250 154
365 468 616 848 679 123 20 313 13 424 -14z m-908 -1100 c21 -11 61 -39 88
-60 119 -95 275 -93 401 6 81 63 108 75 167 76 57 1 99 -16 162 -67 67 -55
120 -77 194 -83 89 -6 153 15 234 77 78 60 94 68 137 71 81 6 98 1 177 -59 51
-39 98 -65 135 -76 66 -19 64 -12 26 -155 -80 -295 -293 -553 -574 -694 -242
-121 -543 -146 -806 -66 -285 86 -535 299 -669 570 -42 86 -85 216 -95 287 -6
48 -5 49 22 51 38 3 105 37 146 73 85 75 176 93 255 49z"/>
<path d="M1022 2830 c-165 -38 -209 -260 -71 -360 122 -88 298 -11 316 139 16
138 -111 252 -245 221z m111 -153 c45 -59 -18 -144 -89 -120 -72 24 -75 126
-4 149 42 14 68 6 93 -29z"/>
<path d="M4147 2827 c-121 -37 -179 -170 -124 -282 37 -74 95 -109 184 -110
53 0 67 4 105 30 90 64 117 178 64 269 -46 79 -144 118 -229 93z m101 -126
c33 -17 43 -64 24 -103 -23 -45 -62 -58 -107 -34 -43 24 -56 72 -31 112 27 40
68 50 114 25z"/>
<path d="M3700 1738 c-140 -38 -194 -215 -98 -324 81 -92 210 -96 294 -10 75
79 79 191 10 273 -47 56 -131 81 -206 61z m114 -138 c26 -25 26 -85 0 -110
-10 -11 -33 -22 -51 -26 -27 -5 -37 -1 -63 25 -25 25 -30 37 -26 61 11 74 88
101 140 50z"/>
<path d="M1432 1704 c-31 -15 -61 -40 -78 -66 -25 -36 -29 -51 -29 -112 0 -59
4 -77 25 -106 44 -63 91 -91 162 -95 110 -6 207 84 209 194 3 154 -152 253
-289 185z m150 -127 c51 -64 -13 -153 -90 -126 -38 13 -56 48 -48 91 12 64 99
86 138 35z"/>
<path d="M2607 1239 c-27 -4 -64 -18 -82 -30 -38 -27 -85 -93 -86 -124 0 -11
-2 -28 -4 -38 -6 -32 24 -113 52 -142 50 -49 100 -68 166 -62 78 7 127 40 161
108 14 29 26 64 26 77 0 130 -110 230 -233 211z m86 -143 c32 -34 32 -75 2
-109 -60 -64 -165 -2 -134 80 21 57 92 72 132 29z"/>
</g>
</svg>
